<svg width="107" height="53" viewBox="0 0 107 53" fill="none" xmlns="http://www.w3.org/2000/svg">
<path d="M93.4312 15.0229C86.9305 15.0229 81.6406 20.3417 81.6406 26.8803C81.6406 33.4189 86.9305 38.7377 93.4312 38.7377C99.9304 38.7377 105.219 33.4189 105.219 26.8803C105.219 20.3417 99.9304 15.0229 93.4312 15.0229ZM93.4312 33.1181C90.0124 33.1181 87.2279 30.3167 87.2279 26.8803C87.2279 23.4423 90.0124 20.6425 93.4312 20.6425C96.847 20.6425 99.633 23.4423 99.633 26.8803C99.633 30.3183 96.8485 33.1181 93.4297 33.1181H93.4312ZM58.7121 24.4789L56.6504 23.4438C55.7553 22.9981 55.1941 22.653 54.9684 22.3981C54.7533 22.1722 54.6308 21.8736 54.6253 21.5615C54.6253 21.1615 54.8053 20.8241 55.159 20.5616C55.5098 20.2868 56.0084 20.1616 56.6413 20.1616C57.7987 20.1616 59.0811 20.8608 60.4932 22.2699L63.973 18.7693C63.118 17.6036 61.9998 16.6568 60.7097 16.0061C59.4365 15.3648 58.0299 15.0342 56.6047 15.0412C54.4805 15.0412 52.7268 15.6687 51.3605 16.9327C49.9957 18.1968 49.3095 19.7158 49.3095 21.4974C49.3095 24.2606 51.1165 26.5628 54.7427 28.3901L56.6413 29.3443C58.2775 30.1732 59.0918 31.0175 59.0918 31.8907C59.0918 32.364 58.8646 32.7731 58.4132 33.1364C57.9618 33.5013 57.3641 33.6738 56.623 33.6738C55.9367 33.6738 55.1499 33.4372 54.2639 32.9563C53.3811 32.4831 52.5957 31.8471 51.9491 31.0816L48.4876 34.8738C50.4394 37.4385 53.0425 38.73 56.3149 38.73C58.7746 38.73 60.7372 38.0568 62.1919 36.7195C63.6558 35.3837 64.3878 33.7105 64.3878 31.709C64.3878 30.2084 63.9822 28.8909 63.177 27.7719C62.3642 26.6528 60.8729 25.5628 58.7121 24.4804V24.4789ZM23.7062 36.1546V15.4947H18.1098V16.8778C16.2241 15.6644 14.0292 15.0204 11.7876 15.0229C5.28839 15.0229 0 20.3417 0 26.8803C0 33.4189 5.28839 38.7377 11.7891 38.7377C14.0038 38.741 16.1738 38.1136 18.0458 36.9286C18.0458 37.1103 18.0366 37.2736 18.0366 37.3835C18.0366 40.82 15.2521 43.6214 11.8348 43.6214C10.6729 43.6187 9.53531 43.2874 8.55322 42.6657L5.78551 47.5402C7.61054 48.6548 9.70621 49.2462 11.844 49.2501C18.3447 49.2501 23.7062 43.9298 23.7062 37.3912C23.7062 37.1378 23.723 36.3912 23.7062 36.1546ZM11.7891 33.1166C8.37328 33.1166 5.58727 30.3167 5.58727 26.8803C5.58727 23.4423 8.37175 20.6425 11.7891 20.6425C15.2064 20.6425 17.9909 23.4423 17.9909 26.8803C17.9909 30.3167 15.2064 33.1181 11.7891 33.1181V33.1166ZM45.9989 15.487H40.375V26.7597C40.3842 28.3611 40.3842 31.1259 39.21 32.3075C38.6488 32.8708 38.0343 33.3807 36.7412 33.3807C35.4389 33.3807 34.8244 32.8708 34.2647 32.3075C33.089 31.1243 33.0982 28.352 33.1058 26.7597V15.487H27.4835V26.7261C27.4652 29.0435 27.4377 33.3456 30.2588 36.2004C31.9133 37.8736 33.885 38.7285 36.732 38.7285C39.5806 38.7285 41.5507 37.8828 43.2053 36.2004C46.0264 33.3456 45.9989 29.0344 45.9806 26.7261L45.9989 15.4855V15.487ZM77.868 32.109C77.4166 32.454 76.3217 33.2189 75.0835 33.0464C74.071 32.909 73.249 32.164 73.1225 29.6725V20.3249H79.7314V15.4687H73.1225V9.16675H67.5169V10.4033H67.5078V28.9367C67.5078 31.8831 68.2489 38.7285 75.0744 38.7285C78.5283 38.6751 80.625 36.7927 81.5034 36.0569L81.6208 35.9653L78.2569 31.8006C78.2477 31.8083 78.0129 31.9991 77.868 32.109Z" fill="#F45D48"/>
</svg>
