<svg width="87" height="36" viewBox="0 0 87 36" fill="none" xmlns="http://www.w3.org/2000/svg">
<path fill-rule="evenodd" clip-rule="evenodd" d="M86.7201 18.4683C86.7201 12.3588 83.7608 7.53803 78.1048 7.53803C72.4249 7.53803 68.9883 12.3588 68.9883 18.4205C68.9883 25.6039 73.0454 29.2314 78.8685 29.2314C81.7084 29.2314 83.8563 28.5871 85.4791 27.6802V22.9072C83.8563 23.7186 81.9948 24.2197 79.6322 24.2197C77.3173 24.2197 75.2649 23.4083 75.0023 20.5922H86.6724C86.6724 20.282 86.7201 19.041 86.7201 18.4683ZM74.9307 16.2011C74.9307 13.5043 76.5774 12.3826 78.0809 12.3826C79.5367 12.3826 81.0879 13.5043 81.0879 16.2011H74.9307Z" fill="#635BFF"/>
<path fill-rule="evenodd" clip-rule="evenodd" d="M59.7762 7.53801C57.4374 7.53801 55.9339 8.63581 55.0986 9.39949L54.7884 7.91985H49.5381V35.7466L55.5044 34.4817L55.5282 27.7279C56.3874 28.3484 57.6522 29.2314 59.7523 29.2314C64.0242 29.2314 67.9142 25.7948 67.9142 18.2296C67.8904 11.3087 63.9526 7.53801 59.7762 7.53801ZM58.3443 23.9811C56.9363 23.9811 56.101 23.4799 55.5282 22.8594L55.5044 14.0055C56.1248 13.3134 56.984 12.8361 58.3443 12.8361C60.516 12.8361 62.0195 15.2703 62.0195 18.3966C62.0195 21.5946 60.5399 23.9811 58.3443 23.9811Z" fill="#635BFF"/>
<path fill-rule="evenodd" clip-rule="evenodd" d="M41.3284 6.12992L47.3185 4.8412V-0.00341797L41.3284 1.26143V6.12992Z" fill="#635BFF"/>
<path d="M47.3185 7.94369H41.3284V28.8257H47.3185V7.94369Z" fill="#635BFF"/>
<path fill-rule="evenodd" clip-rule="evenodd" d="M34.9084 9.70969L34.5265 7.94368H29.3717V28.8257H35.338V14.6736C36.746 12.836 39.1325 13.1701 39.8723 13.4327V7.94368C39.1086 7.65729 36.3164 7.13226 34.9084 9.70969Z" fill="#635BFF"/>
<path fill-rule="evenodd" clip-rule="evenodd" d="M22.976 2.76491L17.1529 4.0059L17.129 23.1219C17.129 26.6539 19.7781 29.2552 23.3101 29.2552C25.2671 29.2552 26.699 28.8972 27.4865 28.4676V23.623C26.7228 23.9333 22.9521 25.0311 22.9521 21.499V13.0269H27.4865V7.94364H22.9521L22.976 2.76491Z" fill="#635BFF"/>
<path fill-rule="evenodd" clip-rule="evenodd" d="M6.84342 14.0055C6.84342 13.0747 7.6071 12.7168 8.87195 12.7168C10.6857 12.7168 12.9768 13.2657 14.7905 14.2441V8.63582C12.8097 7.84827 10.8528 7.53803 8.87195 7.53803C4.02733 7.53803 0.805542 10.0677 0.805542 14.2919C0.805542 20.8786 9.87429 19.8286 9.87429 22.6685C9.87429 23.7663 8.91968 24.1243 7.58324 24.1243C5.60243 24.1243 3.07273 23.3129 1.06806 22.2151V27.895C3.28751 28.8496 5.53084 29.2553 7.58324 29.2553C12.5472 29.2553 15.9599 26.7972 15.9599 22.5253C15.936 15.4135 6.84342 16.6784 6.84342 14.0055Z" fill="#635BFF"/>
</svg>
