<svg width="179" height="53" viewBox="0 0 179 53" fill="none" xmlns="http://www.w3.org/2000/svg">
<g clip-path="url(#clip0_9601_706)">
<path d="M55.1715 33.0609C54.657 33.1895 54.0137 33.3182 53.3705 33.3182C52.084 33.3182 51.5695 32.5463 51.5695 31.2598V25.4708H55.1715C56.0721 25.4708 56.9726 24.8276 56.9726 23.7984C56.9726 22.7692 56.2007 22.126 55.1715 22.126H51.5695V20.1963C51.5695 19.0385 50.6689 18.2666 49.6398 18.2666C48.6106 18.2666 47.7101 19.1671 47.7101 20.1963V31.3885C47.7101 34.6046 49.2538 36.9203 52.8559 36.9203C53.8851 36.9203 55.3002 36.7916 56.3294 36.277C57.2299 35.8911 57.4872 35.2479 57.4872 34.6046C57.4872 33.7041 56.5866 32.8036 55.1715 33.0609ZM68.0361 21.6114C67.5215 21.4828 66.4924 21.3541 65.5919 21.3541C62.3757 21.3541 60.5747 23.2838 60.5747 26.2427V34.9906C60.5747 36.0197 61.4752 36.9203 62.5044 36.9203C63.5335 36.9203 64.434 36.0197 64.434 34.9906V27.0145C64.434 25.7281 64.9486 25.2135 65.8491 25.2135C66.7497 25.2135 67.2642 25.4708 68.0361 25.4708C69.1939 25.4708 69.8372 24.4416 69.8372 23.6697C69.7085 22.6406 69.1939 21.9973 68.0361 21.6114ZM78.7137 21.3541C75.1116 21.3541 72.5387 23.6697 72.1528 27.4005C72.1528 28.301 72.0241 29.8447 72.1528 31.0026C72.4101 34.6046 74.983 37.0489 78.8424 37.0489C80.6434 37.0489 82.3158 36.663 83.345 36.0197C84.1169 35.5052 84.2455 34.9906 84.2455 34.476C84.2455 33.4468 83.345 32.4177 81.8012 32.9322C80.9007 33.3182 79.8715 33.5755 78.8424 33.5755C77.0413 33.5755 75.6262 32.6749 75.6262 30.8739V30.488H82.959C84.2455 30.488 84.8887 29.7161 84.8887 28.5583V27.9151C85.0174 23.927 82.4445 21.3541 78.7137 21.3541ZM81.158 27.9151H75.7549C75.7549 25.9854 76.6554 24.6989 78.7137 24.6989C80.5148 24.6989 81.5439 25.8567 81.4153 27.5291C81.4153 27.7864 81.4153 27.9151 81.158 27.9151ZM94.1512 21.3541C90.5491 21.3541 87.9762 23.6697 87.5903 27.4005C87.5903 28.301 87.4616 29.8447 87.5903 31.0026C87.8476 34.6046 90.4205 37.0489 94.2799 37.0489C96.0809 37.0489 97.7533 36.663 98.7825 36.0197C99.5544 35.5052 99.683 34.9906 99.683 34.476C99.683 33.4468 98.7825 32.4177 97.2387 32.9322C96.3382 33.3182 95.309 33.5755 94.2799 33.5755C92.4788 33.5755 91.0637 32.6749 91.0637 30.8739V30.488H98.3965C99.683 30.488 100.326 29.7161 100.326 28.5583V27.9151C100.455 23.927 97.882 21.3541 94.1512 21.3541ZM96.5955 27.9151H91.1924C91.1924 25.9854 92.0929 24.6989 94.1512 24.6989C95.9523 24.6989 96.9814 25.8567 96.8528 27.5291C96.8528 27.7864 96.8528 27.9151 96.5955 27.9151ZM159.117 27.7864L157.059 27.2718C155.773 27.0145 155.387 26.6286 155.387 25.9854C155.387 25.3421 156.03 24.8276 157.445 24.8276C158.217 24.8276 159.117 25.0848 159.889 25.4708C160.79 25.9854 161.819 25.8567 162.334 25.2135C162.977 24.5703 162.977 23.4125 162.205 22.6406C161.176 21.8687 159.375 21.3541 157.574 21.3541C154.229 21.3541 151.785 23.0265 151.785 26.114C151.785 28.5583 153.586 29.8447 155.901 30.488C157.059 30.7453 156.93 30.7453 157.96 31.0026C159.117 31.2598 159.632 31.7744 159.632 32.289C159.632 33.0609 158.989 33.5755 157.445 33.5755C156.159 33.5755 155.001 33.1895 154.1 32.6749C153.2 32.0317 152.171 32.289 151.656 33.0609C151.141 33.8328 151.27 34.8619 152.042 35.3765C153.071 36.277 154.743 37.0489 157.445 37.0489C160.79 37.0489 163.363 35.2479 163.363 32.1604C163.363 29.8447 161.948 28.4296 159.117 27.7864ZM176.999 30.488C178.286 30.488 178.929 29.7161 178.929 28.5583V27.9151C178.929 23.927 176.356 21.3541 172.625 21.3541C169.023 21.3541 166.45 23.6697 166.064 27.4005C166.064 28.301 165.936 29.8447 166.064 31.0026C166.322 34.6046 168.894 37.0489 172.754 37.0489C174.555 37.0489 176.227 36.663 177.256 36.0197C178.028 35.5052 178.157 34.9906 178.157 34.476C178.157 33.4468 177.256 32.4177 175.713 32.9322C174.812 33.3182 173.783 33.5755 172.754 33.5755C170.953 33.5755 169.538 32.6749 169.538 30.8739V30.488H176.999ZM172.625 24.6989C174.426 24.6989 175.455 25.8567 175.327 27.5291C175.327 27.7864 175.198 27.9151 175.069 27.9151H169.666C169.666 25.9854 170.696 24.6989 172.625 24.6989ZM125.541 21.3541C121.681 21.3541 118.851 23.7984 118.465 27.1432C118.337 28.301 118.337 30.102 118.465 31.2598C118.723 34.6046 121.681 37.0489 125.541 37.0489C129.4 37.0489 132.23 34.6046 132.488 31.2598C132.616 30.102 132.616 28.4296 132.488 27.2718C132.23 23.7984 129.4 21.3541 125.541 21.3541ZM128.628 30.6166C128.5 32.289 127.342 33.3182 125.541 33.3182C123.74 33.3182 122.582 32.1604 122.453 30.6166C122.453 29.8447 122.453 28.5583 122.453 27.7864C122.582 26.114 123.74 25.0848 125.541 25.0848C127.342 25.0848 128.5 26.2427 128.628 27.7864C128.757 28.5583 128.757 29.8447 128.628 30.6166ZM110.232 21.3541C108.817 21.3541 107.273 21.8687 106.759 22.5119V18.3953C106.759 17.2375 105.987 16.4656 104.957 16.4656C103.928 16.4656 103.156 17.3661 103.156 18.3953V34.9906C103.156 36.0197 104.057 36.9203 105.086 36.9203C106.115 36.9203 106.887 36.0197 106.887 34.9906V26.3713C107.53 25.7281 108.56 25.2135 109.846 25.2135C111.39 25.2135 112.29 26.114 112.29 27.9151V34.9906C112.29 36.1484 113.062 37.0489 114.091 37.0489C115.249 37.0489 116.021 36.1484 116.021 34.9906V27.6578C115.892 23.5411 113.834 21.3541 110.232 21.3541ZM146.253 21.4828C145.224 21.4828 144.323 22.3833 144.323 23.4125V32.5463C143.68 32.9322 142.779 33.3182 141.622 33.3182C140.078 33.3182 138.92 32.4177 138.92 30.6166V23.4125C138.92 22.2546 138.019 21.3541 136.99 21.3541C135.832 21.3541 135.189 22.2546 135.189 23.4125V30.7453C135.189 34.7333 137.505 36.9203 141.493 36.9203C144.452 36.9203 146.51 35.8911 147.411 35.2479C147.925 34.9906 148.054 34.6046 148.054 33.9614V23.4125C148.054 22.3833 147.282 21.4828 146.253 21.4828Z" fill="#3E474F"/>
<path d="M33.559 13.5069C32.1439 12.735 29.9569 14.0215 28.6705 16.3371L26.2262 20.4538C25.3257 22.1262 25.4543 24.1845 26.6121 25.8569L26.7408 25.9856C27.8986 27.5293 29.3137 29.0731 29.8283 29.5876C30.0856 29.8449 30.3429 30.2309 30.4715 30.7455C30.8574 32.1606 30.0856 33.7043 28.5418 34.0903C27.1267 34.4762 25.583 33.7043 25.197 32.1606C25.0684 31.7746 25.0684 31.3887 25.0684 31.1314C25.197 30.4882 24.9397 29.5877 24.0392 28.5585C23.1387 27.658 21.4663 29.459 20.8231 31.26V31.3887C20.3085 33.1897 19.9225 34.8621 20.0512 34.9908C20.0512 35.1194 20.1798 35.1194 20.1798 35.2481C20.9517 36.7918 20.4371 38.5929 18.8934 39.3647C17.3496 40.1366 15.5486 39.622 14.7767 38.0783C14.0048 36.5345 14.5194 34.7335 16.0632 33.9616C16.1918 33.9616 16.1918 33.833 16.3205 33.833C16.4491 33.833 16.7064 33.0611 17.0923 32.0319C17.3496 31.1314 17.4783 30.7455 17.6069 30.3595C17.7356 29.8449 17.9929 28.5585 17.8642 28.0439C17.7356 27.4007 17.0923 27.4007 16.4491 27.7866C16.0632 28.0439 15.2913 28.6871 15.034 28.9444C14.3908 29.459 13.8762 30.2309 13.6189 30.8741C13.4902 31.1314 13.233 31.5173 12.9757 31.7746C11.8179 32.6752 10.1455 32.5465 9.11629 31.3887C8.21577 30.2309 8.34442 28.5585 9.50223 27.5293C9.88817 27.272 10.2741 27.0147 10.66 27.0147C11.3033 26.8861 13.6189 25.471 15.034 24.4418C15.2913 24.3132 15.6772 23.9272 15.8059 23.7986C16.1918 23.284 15.8059 22.8981 15.4199 22.8981C14.2621 23.0267 12.9757 23.1554 12.7184 23.5413C12.5897 23.6699 12.4611 23.9272 12.2038 24.0559C11.1746 24.8278 9.63088 24.5705 8.859 23.5413C8.08713 22.5121 8.34442 20.9684 9.37358 20.1965C9.75952 19.8106 10.4028 19.6819 10.7887 19.6819C11.6892 19.6819 14.0048 20.1965 15.8059 19.8106L16.3205 19.6819C18.2501 19.296 20.5658 17.6236 21.4663 15.9512C21.4663 15.9512 22.3668 14.4074 23.396 12.4778C24.5538 10.5481 24.4251 8.36108 23.2673 7.71786L21.0804 6.4314C19.9225 5.78817 18.2501 5.78817 17.0923 6.4314L2.16942 14.922C1.0116 15.5653 0.111084 17.109 0.111084 18.3955V34.8621C0.111084 36.1486 1.0116 37.6923 2.16942 38.3356L17.0923 46.8262C18.2501 47.4694 20.0512 47.4694 21.0804 46.8262L36.0033 38.3356C37.1611 37.6923 38.0616 36.1486 38.0616 34.8621V18.3955C38.0616 17.109 37.1611 15.5653 36.0033 14.922C36.0033 14.922 34.9741 14.2788 33.559 13.5069Z" fill="#5FCF80"/>
</g>
<defs>
<clipPath id="clip0_9601_706">
<rect width="178.75" height="52" fill="white" transform="translate(0.111084 0.5)"/>
</clipPath>
</defs>
</svg>
